<svg id="af348511-113d-43fb-9a8c-98684e259cb2" data-name="Capa 3" xmlns="http://www.w3.org/2000/svg" viewBox="0 0 149.95 52.48"><defs><style>.\37 8cad5c8-4e10-4a8a-8025-8f5b9db84937{fill:#fff;}</style></defs><title>logo_tanner</title><path class="78cad5c8-4e10-4a8a-8025-8f5b9db84937" d="M146,30.74c0-4.7,2.3-7,6-7h.3v-5.9c-3.3-.1-5.2,1.7-6.3,4.4v-4h-5.6V38H146Z" transform="translate(-2.53 -2.84)"/><path class="78cad5c8-4e10-4a8a-8025-8f5b9db84937" d="M106.23,26.94V38h5.6V25.24c0-4.6-2.5-7.4-6.7-7.4-2.9,0-4.5,1.5-5.8,3.2v-2.8h-5.6V38h5.6V26.94c0-2.6,1.4-4,3.5-4S106.23,24.24,106.23,26.94Z" transform="translate(-2.53 -2.84)"/><path class="78cad5c8-4e10-4a8a-8025-8f5b9db84937" d="M126.63,34a4.57,4.57,0,0,1-4.8-3.9h13.7a8.08,8.08,0,0,0,.1-1.5c0-5.7-3-10.8-9.6-10.8-5.7,0-9.7,4.7-9.7,10.4,0,6.1,4.4,10.2,10.3,10.3a9.75,9.75,0,0,0,8-3.7l-3.2-2.8A6.66,6.66,0,0,1,126.63,34Zm-.5-11.7c2.3,0,3.8,1.7,4.1,4.2h-8.4C122.33,24,123.83,22.34,126.13,22.34Z" transform="translate(-2.53 -2.84)"/><path class="78cad5c8-4e10-4a8a-8025-8f5b9db84937" d="M88.33,38V25.24c0-4.6-2.5-7.4-6.7-7.4-2.9,0-4.5,1.5-5.8,3.2v-2.8h-5.6V38h5.6V26.94c0-2.6,1.4-4,3.5-4s3.4,1.3,3.4,4V38Z" transform="translate(-2.53 -2.84)"/><path class="78cad5c8-4e10-4a8a-8025-8f5b9db84937" d="M41.33,42.54V10.84a8,8,0,0,0-8-8H10.53a8,8,0,0,0-8,8v23.7a8,8,0,0,0,8,8h30.8Zm-4.7-4.8h-9.5V19.54H35v-5.2H13.73v5.2h7.8v18.2H10.43A3.37,3.37,0,0,1,7,34.34V10.64a3.37,3.37,0,0,1,3.4-3.4v-.1h22.8a3.37,3.37,0,0,1,3.4,3.4Z" transform="translate(-2.53 -2.84)"/><path class="78cad5c8-4e10-4a8a-8025-8f5b9db84937" d="M59.23,38h5.4V26.54c0-2.6-.6-4.8-2.1-6.3s-3.6-2.2-6.6-2.2a16.8,16.8,0,0,0-7.6,1.6l1.4,4.3a13.71,13.71,0,0,1,5.4-1.1c2.8,0,4.2,1.3,4.2,3.6v.3a13.37,13.37,0,0,0-4.8-.8c-4.6,0-7.9,2-7.9,6.4,0,3.9,3.1,6.1,6.7,6.1a7.57,7.57,0,0,0,5.9-2.5ZM55,34.54c-1.8,0-3-.9-3-2.4V32c0-1.7,1.5-2.7,3.9-2.7a9.61,9.61,0,0,1,3.6.7v1C59.53,33,57.73,34.54,55,34.54Z" transform="translate(-2.53 -2.84)"/><path class="78cad5c8-4e10-4a8a-8025-8f5b9db84937" d="M26.74,50.29a8.75,8.75,0,0,1-1.2-.32,2.72,2.72,0,0,1-.73-.38,1.13,1.13,0,0,1-.37-.45,1.46,1.46,0,0,1-.1-.56v0a1.26,1.26,0,0,1,.5-1,2.12,2.12,0,0,1,1.37-.41,3.78,3.78,0,0,1,1.3.23,4.31,4.31,0,0,1,1.24.73l.58-.77a5.18,5.18,0,0,0-1.4-.81,4.85,4.85,0,0,0-1.69-.27,3.55,3.55,0,0,0-1.16.18,3,3,0,0,0-.92.5,2.26,2.26,0,0,0-.6.76,2.16,2.16,0,0,0-.21,1v0a2.34,2.34,0,0,0,.18.94,1.9,1.9,0,0,0,.54.71,3.27,3.27,0,0,0,.93.52,9.23,9.23,0,0,0,1.32.38,9.1,9.1,0,0,1,1.14.31,2.51,2.51,0,0,1,.7.37,1.13,1.13,0,0,1,.35.45,1.43,1.43,0,0,1,.1.55v0A1.31,1.31,0,0,1,28.08,54a2.25,2.25,0,0,1-1.43.42A4,4,0,0,1,25,54.1a5.19,5.19,0,0,1-1.4-.94l-.62.73A5.5,5.5,0,0,0,24.68,55a5.2,5.2,0,0,0,1.93.35,4,4,0,0,0,1.21-.18,2.76,2.76,0,0,0,.95-.5,2.35,2.35,0,0,0,.62-.79,2.31,2.31,0,0,0,.22-1v0a2,2,0,0,0-.7-1.59A5.21,5.21,0,0,0,26.74,50.29Z" transform="translate(-2.53 -2.84)"/><path class="78cad5c8-4e10-4a8a-8025-8f5b9db84937" d="M36.39,49.53a2.82,2.82,0,0,0-1-.74,3.14,3.14,0,0,0-2.54,0,3,3,0,0,0-1,.72,3.34,3.34,0,0,0-.65,1.08A3.77,3.77,0,0,0,31,51.92a3.62,3.62,0,0,0,.26,1.39,3.28,3.28,0,0,0,.7,1.08,3.09,3.09,0,0,0,1,.69,3.25,3.25,0,0,0,1.26.25A3.3,3.3,0,0,0,35.84,55,4,4,0,0,0,37,54.1l-.6-.54a3.45,3.45,0,0,1-.89.67,2.5,2.5,0,0,1-1.17.25,2.33,2.33,0,0,1-.82-.15,2.21,2.21,0,0,1-1.22-1.1,2.61,2.61,0,0,1-.25-.92h5.16a1.83,1.83,0,0,0,0-.2V52a4.4,4.4,0,0,0-.2-1.35A3.2,3.2,0,0,0,36.39,49.53Zm-4.38,2a2.8,2.8,0,0,1,.23-.86,2.55,2.55,0,0,1,.46-.7,2,2,0,0,1,.64-.46,1.9,1.9,0,0,1,.78-.16,2,2,0,0,1,.85.18,1.87,1.87,0,0,1,.63.48,2.36,2.36,0,0,1,.41.7,3,3,0,0,1,.19.83Z" transform="translate(-2.53 -2.84)"/><path class="78cad5c8-4e10-4a8a-8025-8f5b9db84937" d="M40.85,49a3,3,0,0,0-.6.59,3.48,3.48,0,0,0-.44.74v-1.7h-1v6.51h1V52.58a3.8,3.8,0,0,1,.2-1.29,2.68,2.68,0,0,1,.55-.94,2.25,2.25,0,0,1,.82-.57,2.67,2.67,0,0,1,1-.19h.08v-1a2.67,2.67,0,0,0-.87.11A2.56,2.56,0,0,0,40.85,49Z" transform="translate(-2.53 -2.84)"/><polygon class="78cad5c8-4e10-4a8a-8025-8f5b9db84937" points="43.97 51.23 41.78 45.82 40.71 45.82 43.53 52.38 44.39 52.38 47.22 45.82 46.18 45.82 43.97 51.23"/><rect class="78cad5c8-4e10-4a8a-8025-8f5b9db84937" x="48.78" y="45.82" width="0.97" height="6.51"/><rect class="78cad5c8-4e10-4a8a-8025-8f5b9db84937" x="48.72" y="43.33" width="1.11" height="1.07"/><path class="78cad5c8-4e10-4a8a-8025-8f5b9db84937" d="M58.59,54.18a2.21,2.21,0,0,1-1.11.28,2.28,2.28,0,0,1-1.71-.74,2.55,2.55,0,0,1-.5-.81,2.66,2.66,0,0,1-.18-1v0a2.73,2.73,0,0,1,.18-1,2.46,2.46,0,0,1,.49-.8,2.3,2.3,0,0,1,.74-.54,2.18,2.18,0,0,1,.92-.2,2.08,2.08,0,0,1,1.13.29,4.6,4.6,0,0,1,.85.69l.64-.68a5.07,5.07,0,0,0-.49-.45,3.21,3.21,0,0,0-.58-.37,3.16,3.16,0,0,0-.69-.25,3.74,3.74,0,0,0-.84-.09,3.24,3.24,0,0,0-1.33.27,3.3,3.3,0,0,0-1.06.74,3.44,3.44,0,0,0-1,2.39v0a3.41,3.41,0,0,0,.25,1.3,3.31,3.31,0,0,0,1.76,1.81,3.24,3.24,0,0,0,1.33.27A3.1,3.1,0,0,0,59,55a4.34,4.34,0,0,0,1.11-.91l-.62-.58A3.76,3.76,0,0,1,58.59,54.18Z" transform="translate(-2.53 -2.84)"/><rect class="78cad5c8-4e10-4a8a-8025-8f5b9db84937" x="59.12" y="43.33" width="1.11" height="1.07"/><rect class="78cad5c8-4e10-4a8a-8025-8f5b9db84937" x="59.19" y="45.82" width="0.97" height="6.51"/><path class="78cad5c8-4e10-4a8a-8025-8f5b9db84937" d="M70.32,49.52a3.5,3.5,0,0,0-3.8-.73,3.33,3.33,0,0,0-1.78,1.82,3.43,3.43,0,0,0-.25,1.31v0a3.39,3.39,0,0,0,.25,1.3,3.28,3.28,0,0,0,.71,1.07,3.39,3.39,0,0,0,1.07.73,3.32,3.32,0,0,0,1.35.27,3.41,3.41,0,0,0,1.36-.27,3.32,3.32,0,0,0,1.08-.74A3.45,3.45,0,0,0,71,53.23a3.37,3.37,0,0,0,.26-1.31v0a3.4,3.4,0,0,0-.25-1.3A3.31,3.31,0,0,0,70.32,49.52Zm0,2.42a2.65,2.65,0,0,1-.18,1,2.47,2.47,0,0,1-.49.79,2.34,2.34,0,0,1-.76.54,2.3,2.3,0,0,1-1,.2,2.27,2.27,0,0,1-1-.2,2.4,2.4,0,0,1-.76-.54,2.48,2.48,0,0,1-.5-.8,2.66,2.66,0,0,1-.18-1v0a2.7,2.7,0,0,1,.18-1,2.52,2.52,0,0,1,.48-.8,2.29,2.29,0,0,1,.75-.54,2.31,2.31,0,0,1,1-.2,2.28,2.28,0,0,1,1,.2,2.47,2.47,0,0,1,.77.55,2.51,2.51,0,0,1,.51.81,2.65,2.65,0,0,1,.18,1Z" transform="translate(-2.53 -2.84)"/><path class="78cad5c8-4e10-4a8a-8025-8f5b9db84937" d="M76.79,52.06a3,3,0,0,0-.67-.35l-.75-.25-.63-.2A3.39,3.39,0,0,1,74.2,51a1.2,1.2,0,0,1-.37-.3.61.61,0,0,1-.14-.4v0a.83.83,0,0,1,.34-.67,1.43,1.43,0,0,1,.92-.27,3,3,0,0,1,1,.17,4.4,4.4,0,0,1,1,.46l.44-.73a4.6,4.6,0,0,0-1.12-.52,4,4,0,0,0-1.22-.2,2.88,2.88,0,0,0-.89.13,2.09,2.09,0,0,0-.71.38,1.71,1.71,0,0,0-.46.59,1.76,1.76,0,0,0-.16.76v0a1.36,1.36,0,0,0,.2.76,1.69,1.69,0,0,0,.5.5,3.08,3.08,0,0,0,.69.33l.76.25.61.19a2.92,2.92,0,0,1,.52.23,1.2,1.2,0,0,1,.36.31.68.68,0,0,1,.13.42v0a.89.89,0,0,1-.38.76,1.6,1.6,0,0,1-1,.28A3.25,3.25,0,0,1,74,54.27a4.28,4.28,0,0,1-1.1-.62l-.49.69a4.45,4.45,0,0,0,1.27.7,4.19,4.19,0,0,0,1.42.26,3,3,0,0,0,.91-.13,2.18,2.18,0,0,0,.73-.38,1.88,1.88,0,0,0,.49-.61,1.8,1.8,0,0,0,.18-.83v0a1.41,1.41,0,0,0-.18-.74A1.72,1.72,0,0,0,76.79,52.06Z" transform="translate(-2.53 -2.84)"/><polygon class="78cad5c8-4e10-4a8a-8025-8f5b9db84937" points="80.56 52.33 81.56 52.33 81.56 48.49 86.33 48.49 86.33 47.6 81.56 47.6 81.56 44.44 86.9 44.44 86.9 43.52 80.56 43.52 80.56 52.33"/><rect class="78cad5c8-4e10-4a8a-8025-8f5b9db84937" x="88.7" y="45.82" width="0.97" height="6.51"/><rect class="78cad5c8-4e10-4a8a-8025-8f5b9db84937" x="88.64" y="43.33" width="1.11" height="1.07"/><path class="78cad5c8-4e10-4a8a-8025-8f5b9db84937" d="M99.44,49.25a2.18,2.18,0,0,0-.78-.54,2.75,2.75,0,0,0-1.05-.19,2.34,2.34,0,0,0-1.37.37,3.07,3.07,0,0,0-.86.9V48.66h-1v6.51h1V51.45a2.29,2.29,0,0,1,.15-.83,1.88,1.88,0,0,1,.41-.65,1.8,1.8,0,0,1,.62-.41,2.05,2.05,0,0,1,.78-.15,1.69,1.69,0,0,1,1.33.53,2.09,2.09,0,0,1,.47,1.43v3.8h1v-4a3.15,3.15,0,0,0-.17-1.06A2.36,2.36,0,0,0,99.44,49.25Z" transform="translate(-2.53 -2.84)"/><path class="78cad5c8-4e10-4a8a-8025-8f5b9db84937" d="M104.57,48.56a4.81,4.81,0,0,0-1.27.15,6.86,6.86,0,0,0-1.1.41l.29.8a5.5,5.5,0,0,1,.93-.34,4.09,4.09,0,0,1,1.05-.13,2.08,2.08,0,0,1,1.42.44,1.65,1.65,0,0,1,.5,1.31v.2a8.32,8.32,0,0,0-.9-.2,6.76,6.76,0,0,0-1.09-.08,4.28,4.28,0,0,0-1.13.14,2.75,2.75,0,0,0-.88.4,1.81,1.81,0,0,0-.57.66,2,2,0,0,0-.2.93v0a1.8,1.8,0,0,0,.21.88,2,2,0,0,0,.55.64,2.33,2.33,0,0,0,.78.38,3.24,3.24,0,0,0,.89.13,2.81,2.81,0,0,0,1.43-.33,3.11,3.11,0,0,0,.91-.77v1h1v-4a2.58,2.58,0,0,0-.68-1.91A2.85,2.85,0,0,0,104.57,48.56Zm1.84,4.22a1.48,1.48,0,0,1-.17.71,1.72,1.72,0,0,1-.46.55,2.17,2.17,0,0,1-.68.36,2.72,2.72,0,0,1-.84.13,2.16,2.16,0,0,1-.62-.09,1.7,1.7,0,0,1-.52-.25,1.2,1.2,0,0,1-.36-.41,1.12,1.12,0,0,1-.13-.54v0a1.11,1.11,0,0,1,.5-.95,2.37,2.37,0,0,1,1.4-.36,5.78,5.78,0,0,1,1.07.09q.46.09.83.19Z" transform="translate(-2.53 -2.84)"/><path class="78cad5c8-4e10-4a8a-8025-8f5b9db84937" d="M114.39,49.25a2.18,2.18,0,0,0-.78-.54,2.75,2.75,0,0,0-1.05-.19,2.34,2.34,0,0,0-1.37.37,3.07,3.07,0,0,0-.86.9V48.66h-1v6.51h1V51.45a2.29,2.29,0,0,1,.15-.83,1.88,1.88,0,0,1,.41-.65,1.8,1.8,0,0,1,.62-.41,2.05,2.05,0,0,1,.78-.15,1.69,1.69,0,0,1,1.33.53,2.09,2.09,0,0,1,.47,1.43v3.8h1v-4a3.15,3.15,0,0,0-.17-1.06A2.36,2.36,0,0,0,114.39,49.25Z" transform="translate(-2.53 -2.84)"/><path class="78cad5c8-4e10-4a8a-8025-8f5b9db84937" d="M121.17,54.18a2.21,2.21,0,0,1-1.12.28,2.28,2.28,0,0,1-1.71-.74,2.55,2.55,0,0,1-.5-.81,2.65,2.65,0,0,1-.18-1v0a2.74,2.74,0,0,1,.18-1,2.45,2.45,0,0,1,.49-.8,2.31,2.31,0,0,1,.74-.54,2.18,2.18,0,0,1,.92-.2,2.08,2.08,0,0,1,1.13.29,4.61,4.61,0,0,1,.85.69l.64-.68a5.18,5.18,0,0,0-.49-.45,3.23,3.23,0,0,0-.58-.37,3.15,3.15,0,0,0-.69-.25,3.73,3.73,0,0,0-.84-.09,3.24,3.24,0,0,0-1.33.27,3.31,3.31,0,0,0-1.06.74,3.44,3.44,0,0,0-1,2.39v0a3.41,3.41,0,0,0,.25,1.3,3.31,3.31,0,0,0,1.76,1.81,3.24,3.24,0,0,0,1.33.27,3.11,3.11,0,0,0,1.54-.35,4.35,4.35,0,0,0,1.11-.91l-.62-.58A3.77,3.77,0,0,1,121.17,54.18Z" transform="translate(-2.53 -2.84)"/><rect class="78cad5c8-4e10-4a8a-8025-8f5b9db84937" x="121.7" y="43.33" width="1.11" height="1.07"/><rect class="78cad5c8-4e10-4a8a-8025-8f5b9db84937" x="121.76" y="45.82" width="0.97" height="6.51"/><path class="78cad5c8-4e10-4a8a-8025-8f5b9db84937" d="M132.43,49.53a2.81,2.81,0,0,0-1-.74,3.14,3.14,0,0,0-2.54,0,3,3,0,0,0-1,.72,3.36,3.36,0,0,0-.65,1.08,3.77,3.77,0,0,0-.23,1.33,3.62,3.62,0,0,0,.26,1.39,3.29,3.29,0,0,0,.7,1.08,3.1,3.1,0,0,0,1,.69,3.25,3.25,0,0,0,1.26.25,3.31,3.31,0,0,0,1.56-.33A4,4,0,0,0,133,54.1l-.6-.54a3.46,3.46,0,0,1-.89.67,2.5,2.5,0,0,1-1.17.25,2.33,2.33,0,0,1-.82-.15,2.22,2.22,0,0,1-.71-.42,2.2,2.2,0,0,1-.52-.68,2.59,2.59,0,0,1-.25-.92h5.16c0-.08,0-.14,0-.2V52a4.39,4.39,0,0,0-.2-1.35A3.19,3.19,0,0,0,132.43,49.53Zm-4.38,2a2.77,2.77,0,0,1,.23-.86,2.55,2.55,0,0,1,.46-.7,2,2,0,0,1,.64-.46,1.9,1.9,0,0,1,.78-.16,2,2,0,0,1,.85.18,1.86,1.86,0,0,1,.63.48,2.35,2.35,0,0,1,.41.7,3.06,3.06,0,0,1,.19.83Z" transform="translate(-2.53 -2.84)"/><path class="78cad5c8-4e10-4a8a-8025-8f5b9db84937" d="M136.89,49a3,3,0,0,0-.6.59,3.48,3.48,0,0,0-.44.74v-1.7h-1v6.51h1V52.58a3.8,3.8,0,0,1,.2-1.29,2.67,2.67,0,0,1,.55-.94,2.26,2.26,0,0,1,.83-.57,2.67,2.67,0,0,1,1-.19h.08v-1a2.67,2.67,0,0,0-.87.11A2.56,2.56,0,0,0,136.89,49Z" transform="translate(-2.53 -2.84)"/><path class="78cad5c8-4e10-4a8a-8025-8f5b9db84937" d="M145.36,49.52a3.5,3.5,0,0,0-3.8-.73,3.33,3.33,0,0,0-1.78,1.82,3.43,3.43,0,0,0-.25,1.31v0a3.38,3.38,0,0,0,.25,1.3,3.29,3.29,0,0,0,.71,1.07,3.39,3.39,0,0,0,1.07.73,3.31,3.31,0,0,0,1.35.27,3.4,3.4,0,0,0,1.36-.27,3.32,3.32,0,0,0,1.08-.74,3.45,3.45,0,0,0,.71-1.08,3.37,3.37,0,0,0,.26-1.31v0a3.39,3.39,0,0,0-.25-1.3A3.3,3.3,0,0,0,145.36,49.52Zm0,2.42a2.66,2.66,0,0,1-.18,1,2.46,2.46,0,0,1-.49.79,2.34,2.34,0,0,1-.76.54,2.3,2.3,0,0,1-1,.2,2.27,2.27,0,0,1-1-.2,2.42,2.42,0,0,1-.76-.54,2.48,2.48,0,0,1-.5-.8,2.65,2.65,0,0,1-.18-1v0a2.71,2.71,0,0,1,.18-1,2.5,2.5,0,0,1,.49-.8,2.28,2.28,0,0,1,.75-.54,2.31,2.31,0,0,1,1-.2,2.29,2.29,0,0,1,1,.2,2.46,2.46,0,0,1,.77.55,2.52,2.52,0,0,1,.51.81,2.67,2.67,0,0,1,.18,1Z" transform="translate(-2.53 -2.84)"/><path class="78cad5c8-4e10-4a8a-8025-8f5b9db84937" d="M152.3,52.58a1.73,1.73,0,0,0-.48-.52,3,3,0,0,0-.67-.35l-.75-.25-.63-.2a3.39,3.39,0,0,1-.54-.23,1.21,1.21,0,0,1-.37-.3.61.61,0,0,1-.14-.4v0a.83.83,0,0,1,.34-.67,1.43,1.43,0,0,1,.92-.27,3,3,0,0,1,1,.17,4.4,4.4,0,0,1,1,.46l.44-.73a4.58,4.58,0,0,0-1.12-.52,4,4,0,0,0-1.22-.2,2.88,2.88,0,0,0-.89.13,2.08,2.08,0,0,0-.71.38,1.7,1.7,0,0,0-.46.59,1.76,1.76,0,0,0-.16.76v0a1.37,1.37,0,0,0,.2.76,1.69,1.69,0,0,0,.5.5,3.09,3.09,0,0,0,.69.33l.76.25.61.19a2.93,2.93,0,0,1,.52.23,1.21,1.21,0,0,1,.36.31.68.68,0,0,1,.13.42v0a.89.89,0,0,1-.38.76,1.6,1.6,0,0,1-1,.28,3.26,3.26,0,0,1-1.15-.21,4.27,4.27,0,0,1-1.1-.62l-.49.69a4.45,4.45,0,0,0,1.27.7,4.19,4.19,0,0,0,1.42.26,3,3,0,0,0,.91-.13,2.18,2.18,0,0,0,.73-.38,1.88,1.88,0,0,0,.49-.61,1.79,1.79,0,0,0,.18-.83v0A1.41,1.41,0,0,0,152.3,52.58Z" transform="translate(-2.53 -2.84)"/></svg>